<?xml version="1.0" encoding="utf-8"?>
<!-- Generator: Adobe Illustrator 25.2.1, SVG Export Plug-In . SVG Version: 6.00 Build 0)  -->
<svg version="1.1" id="Camada_1" xmlns="http://www.w3.org/2000/svg" xmlns:xlink="http://www.w3.org/1999/xlink" x="0px" y="0px"
	 viewBox="0 0 48 48" style="enable-background:new 0 0 48 48;" xml:space="preserve">
<style type="text/css">
	.st0{fill:#323238;}
	.st1{fill:#FFFFFF;}
</style>
<rect y="0" class="st0" width="48" height="48"/>
<path class="st1" d="M24.7,36.1c-0.5,0-1,0-1.5,0c-0.3,0-0.6-0.1-0.9-0.1c-2.2-0.3-4.2-1.2-6-2.6c-2.3-1.9-3.8-4.3-4.3-7.3
	c-0.1-0.4-0.1-0.9-0.2-1.4c0-0.5,0-1,0-1.5c0.1-0.5,0.1-1.1,0.2-1.6c1-5.2,5.4-9.2,10.7-9.7c2.6-0.2,5,0.2,7.3,1.6
	c4.3,2.7,6.3,6.6,6,11.7c-0.2,2.4-1.1,4.5-2.6,6.4c-1.9,2.3-4.3,3.8-7.3,4.3C25.6,36,25.2,36.1,24.7,36.1z M31.1,30.2
	c0-0.1,0-0.2,0-0.2c0-1.6,0-3.2,0-4.8c0-0.3,0-0.7-0.1-1c-0.2-1.7-1.2-2.8-2.9-3c-1.2-0.1-2.2,0.2-2.9,1.2c0,0-0.1,0.1-0.1,0.2
	c0-0.4,0-0.8,0-1.2c-1,0-2,0-2.9,0c0,3,0,5.9,0,8.8c1,0,1.9,0,2.9,0c0-0.1,0-0.2,0-0.3c0-1.2,0-2.4,0-3.5c0-0.5,0-0.9,0-1.4
	c0-0.5,0.3-0.9,0.7-1.2c0.9-0.6,1.9-0.2,2.2,0.8c0.1,0.3,0.1,0.7,0.1,1c0,1.5,0,2.9,0,4.4c0,0.1,0,0.2,0,0.3
	C29.1,30.2,30.1,30.2,31.1,30.2z M17.5,21.3c0,3,0,5.9,0,8.9c1,0,2,0,2.9,0c0-0.1,0-0.2,0-0.3c0-2.6,0-5.3,0-7.9c0-0.1,0-0.3,0-0.4
	c0-0.2-0.1-0.2-0.2-0.2c-0.8,0-1.5,0-2.3,0C17.8,21.3,17.7,21.3,17.5,21.3z M18.9,17.1c-0.5,0-1.1,0.2-1.4,0.8
	c-0.4,0.8,0,1.7,0.8,2.1c0.9,0.4,2,0,2.3-0.9C20.9,18.1,20.2,17.1,18.9,17.1z"/>
</svg>
