<?xml version="1.0" encoding="UTF-8"?>
<svg xmlns="http://www.w3.org/2000/svg" xmlns:xlink="http://www.w3.org/1999/xlink" width="48px" height="48px" viewBox="0 0 48 48" version="1.1">
<g id="surface1">
<path style=" stroke:none;fill-rule:nonzero;fill:rgb(20%,20%,22.352941%);fill-opacity:1;" d="M -0.101562 -0.101562 L 47.898438 -0.101562 L 47.898438 47.898438 L -0.101562 47.898438 Z M -0.101562 -0.101562 "/>
<path style=" stroke:none;fill-rule:nonzero;fill:rgb(100%,100%,100%);fill-opacity:1;" d="M 24.601562 36 C 24.101562 36 23.601562 36 23.101562 36 C 22.800781 36 22.5 35.898438 22.199219 35.898438 C 20 35.601562 18 34.699219 16.199219 33.300781 C 13.898438 31.398438 12.398438 29 11.898438 26 C 11.800781 25.601562 11.800781 25.101562 11.699219 24.601562 C 11.699219 24.101562 11.699219 23.601562 11.699219 23.101562 C 11.800781 22.601562 11.800781 22 11.898438 21.5 C 12.898438 16.300781 17.300781 12.300781 22.601562 11.800781 C 25.199219 11.601562 27.601562 12 29.898438 13.398438 C 34.199219 16.101562 36.199219 20 35.898438 25.101562 C 35.699219 27.5 34.800781 29.601562 33.300781 31.5 C 31.398438 33.800781 29 35.300781 26 35.800781 C 25.5 35.898438 25.101562 36 24.601562 36 Z M 31 30.101562 C 31 30 31 29.898438 31 29.898438 C 31 28.300781 31 26.699219 31 25.101562 C 31 24.800781 31 24.398438 30.898438 24.101562 C 30.699219 22.398438 29.699219 21.300781 28 21.101562 C 26.800781 21 25.800781 21.300781 25.101562 22.300781 C 25.101562 22.300781 25 22.398438 25 22.5 C 25 22.101562 25 21.699219 25 21.300781 C 24 21.300781 23 21.300781 22.101562 21.300781 C 22.101562 24.300781 22.101562 27.199219 22.101562 30.101562 C 23.101562 30.101562 24 30.101562 25 30.101562 C 25 30 25 29.898438 25 29.800781 C 25 28.601562 25 27.398438 25 26.300781 C 25 25.800781 25 25.398438 25 24.898438 C 25 24.398438 25.300781 24 25.699219 23.699219 C 26.601562 23.101562 27.601562 23.5 27.898438 24.5 C 28 24.800781 28 25.199219 28 25.5 C 28 27 28 28.398438 28 29.898438 C 28 30 28 30.101562 28 30.199219 C 29 30.101562 30 30.101562 31 30.101562 Z M 17.398438 21.199219 C 17.398438 24.199219 17.398438 27.101562 17.398438 30.101562 C 18.398438 30.101562 19.398438 30.101562 20.300781 30.101562 C 20.300781 30 20.300781 29.898438 20.300781 29.800781 C 20.300781 27.199219 20.300781 24.5 20.300781 21.898438 C 20.300781 21.800781 20.300781 21.601562 20.300781 21.5 C 20.300781 21.300781 20.199219 21.300781 20.101562 21.300781 C 19.300781 21.300781 18.601562 21.300781 17.800781 21.300781 C 17.699219 21.199219 17.601562 21.199219 17.398438 21.199219 Z M 18.800781 17 C 18.300781 17 17.699219 17.199219 17.398438 17.800781 C 17 18.601562 17.398438 19.5 18.199219 19.898438 C 19.101562 20.300781 20.199219 19.898438 20.5 19 C 20.800781 18 20.101562 17 18.800781 17 Z M 18.800781 17 "/>
</g>
</svg>
